<svg xmlns="http://www.w3.org/2000/svg" x="0px" y="0px"
width="50" height="50"
viewBox="0 0 172 172"
style=" fill:#000000;"><g fill="none" fill-rule="nonzero" stroke="none" stroke-width="1" stroke-linecap="butt" stroke-linejoin="miter" stroke-miterlimit="10" stroke-dasharray="" stroke-dashoffset="0" font-family="none" font-weight="none" font-size="none" text-anchor="none" style="mix-blend-mode: normal"><path d="M0,172v-172h172v172z" fill="none"></path><g fill="#728eb5"><path d="M84.28,22.36c-1.89469,0 -3.74906,0.06719 -5.59,0.215c-20.00844,1.80063 -37.23531,13.24938 -47.1925,29.5625c-4.58219,8.385 -7.2025,18.1675 -7.2025,28.9175c0,7.32344 1.38406,14.5125 3.9775,21.6075c0.24188,0.43 0.41656,0.73906 0.43,0.7525c6.36938,10.34688 33.49969,10.09156 63.855,-6.665c20.02188,-10.93812 35.12563,-26.24344 38.485,-38.915c1.08844,-4.12531 0.92719,-7.68625 -0.7525,-10.4275c-0.04031,-0.06719 -0.56437,-0.92719 -1.505,-2.2575c-10.25281,-12.71187 -23.48875,-21.1775 -39.6675,-22.575c-1.58562,-0.12094 -3.225,-0.215 -4.8375,-0.215zM131.58,23.7575c-1.67969,0 -3.39969,0.1075 -5.16,0.215c-0.57781,0.04031 -1.23625,0.06719 -1.8275,0.1075c-1.27656,0.09406 -2.53969,0.16125 -3.87,0.3225c-0.67187,0.08063 -1.35719,0.22844 -2.0425,0.3225c-0.63156,0.08063 -1.29,0.12094 -1.935,0.215c6.67844,4.27313 12.71188,9.84969 17.9525,16.4475c-0.04031,0.02688 -0.08062,0.08063 -0.1075,0.1075c1.02125,1.46469 1.55875,2.48594 1.6125,2.58c2.60688,4.21938 3.07719,9.66156 1.505,15.5875c-3.81625,14.405 -20.23687,31.30938 -41.8175,43.1075c-17.58969,9.70188 -34.92406,14.62 -48.59,14.62c-11.35469,0 -20.12937,-3.35937 -24.4025,-10.32c0,0 -0.09406,-0.22844 -0.215,-0.5375c-0.02687,-0.01344 -0.08062,0.01344 -0.1075,0c-0.16125,-0.41656 -0.28219,-0.87344 -0.43,-1.29c-0.18812,-0.48375 -0.29562,-0.81969 -0.3225,-0.86c0.01344,-0.01344 -0.01344,-0.08062 0,-0.1075c-2.71437,-7.59219 -4.4075,-15.3725 -4.4075,-23.22c0,-0.83312 0.08063,-1.65281 0.1075,-2.4725c-17.79125,19.4575 -23.74406,38.40438 -15.695,51.815c5.93938,9.84969 18.66469,14.7275 35.045,14.7275c2.24406,0 4.60906,-0.13437 6.9875,-0.3225c0.76594,-0.05375 1.58563,-0.13437 2.365,-0.215c1.67969,-0.17469 3.31906,-0.38969 5.0525,-0.645c0.90031,-0.13437 1.77375,-0.26875 2.6875,-0.43c1.94844,-0.33594 3.91031,-0.73906 5.9125,-1.1825c0.61813,-0.13437 1.30344,-0.17469 1.935,-0.3225c14.55281,-3.38625 30.40906,-9.50031 46.225,-18.275c14.31094,-8.11625 26.84813,-17.48219 36.8725,-27.1975c1.45125,-1.41094 2.84875,-2.76812 4.1925,-4.1925c0.26875,-0.28219 0.48375,-0.57781 0.7525,-0.86c1.08844,-1.1825 2.20375,-2.365 3.225,-3.5475c0.34938,-0.40312 0.63156,-0.77937 0.9675,-1.1825c0.88688,-1.06156 1.76031,-2.15 2.58,-3.225c0.36281,-0.47031 0.72563,-0.92719 1.075,-1.3975c0.73906,-0.99437 1.46469,-2.01562 2.15,-3.01c0.34938,-0.51062 0.63156,-0.99437 0.9675,-1.505c0.61813,-0.95406 1.26313,-1.94844 1.8275,-2.9025c0.3225,-0.5375 0.56438,-1.08844 0.86,-1.6125c0.52406,-0.94062 1.03469,-1.86781 1.505,-2.795c0.25531,-0.52406 0.51063,-1.08844 0.7525,-1.6125c0.45688,-0.98094 0.90031,-1.92156 1.29,-2.9025c0.18813,-0.45687 0.37625,-0.94062 0.5375,-1.3975c0.52406,-1.41094 1.03469,-2.80844 1.3975,-4.1925c2.17688,-8.34469 1.42438,-15.61437 -2.2575,-21.715c-0.65844,-1.075 -1.43781,-2.15 -2.2575,-3.1175c-0.22844,-0.28219 -0.51062,-0.48375 -0.7525,-0.7525c-0.65844,-0.72562 -1.38406,-1.3975 -2.15,-2.0425c-0.25531,-0.215 -0.49719,-0.44344 -0.7525,-0.645c-1.00781,-0.80625 -2.06937,-1.57219 -3.225,-2.2575c-0.215,-0.13437 -0.41656,-0.20156 -0.645,-0.3225c-0.98094,-0.55094 -2.0425,-1.14219 -3.1175,-1.6125c-0.38969,-0.17469 -0.77937,-0.26875 -1.1825,-0.43c-1.11531,-0.44344 -2.24406,-0.81969 -3.44,-1.1825c-0.26875,-0.08062 -0.59125,-0.24187 -0.86,-0.3225c-1.47812,-0.40312 -3.03687,-0.77937 -4.6225,-1.075c-0.41656,-0.08062 -0.86,-0.04031 -1.29,-0.1075c-1.24969,-0.20156 -2.53969,-0.41656 -3.87,-0.5375c-0.49719,-0.05375 -0.99437,-0.06719 -1.505,-0.1075c-1.74687,-0.12094 -3.52062,-0.215 -5.375,-0.215c-0.05375,0 -0.05375,0 -0.1075,0zM140.61,109.5425c-8.62687,7.21594 -18.42281,14.0825 -29.24,20.21c-11.97281,6.63813 -24.34875,11.9325 -36.335,15.695c3.09063,0.48375 6.19469,0.7525 9.245,0.7525c24.92656,0 46.64156,-14.79469 56.33,-36.6575z"></path></g></g></svg>

